<?xml version="1.0" standalone="no"?><!DOCTYPE svg PUBLIC "-//W3C//DTD SVG 1.1//EN" "http://www.w3.org/Graphics/SVG/1.1/DTD/svg11.dtd"><svg t="1769312460702" class="icon" viewBox="0 0 1024 1024" version="1.1" xmlns="http://www.w3.org/2000/svg" p-id="60366" xmlns:xlink="http://www.w3.org/1999/xlink" width="256" height="256"><path d="M919.107385 355.758734c0.492222-46.347671-6.26107-124.985137-50.974562-179.503701-26.107481-31.955085-61.134034-50.620162-104.036148-56.093676 6.674537 14.412275 11.380184 28.942683 15.810187 43.66998 23.09508 6.61547 42.409891 18.546944 57.786921 37.389221 37.507354 45.737315 42.449268 116.184199 42.035801 154.10502-0.118133 10.789517 4.055913 21.008056 11.81334 28.529216 5.965737 6.320137 29.828683 27.997616 33.628641 104.449614-0.984445-0.610356-2.027957-1.358534-3.071468-2.244535-7.34396-6.103559-16.28272-9.13565-25.201792-9.13565-10.297295 0-20.555212 4.016536-28.233883 11.931473-14.353208 14.746986-14.904497 38.058644-1.299467 53.494741 2.973024 3.386491 10.336672 12.384318 14.254764 18.940722 1.063201 1.752312 1.43729 3.780269 1.004134 5.414447-0.964756 3.524313-5.808225 7.442404-12.837163 10.336672-20.752101 8.643427-39.0234 13.211252-52.80563 13.211252-5.847603 0-11.321117-0.511911-16.479609-1.161645 3.859024 11.852718 6.61547 26.757215 7.481782 39.9094 3.051779 0.1772 5.808225 0.630045 8.978138 0.630045 20.614278 0 43.965314-6.241381 67.946394-16.223654 18.724144-7.678671 31.403795-20.5749 35.695976-36.345709 3.248668-11.970851 1.378223-25.142725-5.335692-36.207887-6.851737-11.45894-18.389433-24.532369-18.389433-24.532369 9.194716 7.658982 21.027745 13.506585 33.786152 13.506585 5.020669 0 10.257917-0.905689 15.652675-2.973024 10.671384-4.311869 17.36561-17.660943 18.487877-28.607972 0.059067-0.630045 0.098444-1.26009 0.078756-1.890134C962.304832 403.524005 932.948682 369.186564 919.107385 355.758734zM216.351478 628.863466c-0.157511-12.620585 1.43729-27.426638 6.418581-39.810956-4.981292 0.649734-10.257917 1.102578-16.007076 1.102578-16.715876 0-33.845219-3.327424-51.073007-9.903517-8.072449-3.051779-13.112807-9.726317-14.49103-14.766675-0.511911-1.96889-0.472534-3.918091 1.594801-7.206137 2.205157-3.563691 3.780269-6.320137 5.158492-8.741872 2.205157-3.878713 2.953335-5.178181 6.43827-9.509739 12.364629-15.337653 11.45894-37.40891-2.047646-51.72274-7.678671-8.131516-18.113788-12.325251-28.647349-12.325251-7.993693 0-16.026765 2.421735-22.937568 7.363649-0.590667 0.433156-1.240401 0.866312-1.890134 1.299467-3.996847-64.638659 27.840105-92.36063 34.632775-99.3305 7.34396-7.501471 11.380184-17.641254 11.222673-28.135438-0.728489-47.450249 5.808225-113.073353 41.051356-156.231421C200.521602 182.909881 219.619835 171.29343 241.947048 164.540137c4.64658-15.278586 10.395739-31.305351 17.109654-44.398469C216.272722 125.536426 181.383991 144.122748 155.27651 175.999077c-42.409891 51.89994-50.817051 126.245227-49.950739 181.787614-14.884808 15.239209-54.065719 57.964122-44.811936 140.283412 0.098444 0.905689 0.275645 1.79169 0.551289 2.658001 0.236267 0.826934 0.393778 1.693245 0.570978 2.539868 0.925378 4.567825 2.480801 12.187429 9.253783 18.330366 5.847603 5.434136 12.974985 8.328405 20.712723 8.328405 0.866312 0 1.732623-0.039378 2.618624-0.098444 10.572939-0.807245 29.53335-14.510719 29.53335-14.510719-7.954316 9.864139-8.348094 12.404007-14.451653 22.268146-9.430983 15.081697-8.564671 28.962372-6.142937 38.038955 4.607203 16.991521 18.330366 33.805841 38.590244 41.484512 23.98108 9.175027 45.914515 12.463074 65.032437 12.463074C210.208541 629.532889 213.122498 629.040666 216.351478 628.863466zM198.828357 528.174431c0.137822 1.240401 0.393778 2.441424 0.748178 3.642446 0.334711 1.122267 0.551289 2.303601 0.787556 3.484935 1.26009 6.26107 3.40618 16.715876 12.738718 25.142725 8.05276 7.462093 17.877521 11.419562 28.548905 11.419562 1.181334 0 2.382357-0.059067 3.603069-0.157511 14.569786-1.102578 40.696956-19.905478 40.696956-19.905478-10.966717 13.526274-11.498318 17.030898-19.905478 30.557173-12.974985 20.693034-11.793651 39.7322-8.466227 52.175585 6.359515 23.311658 25.260859 46.367359 53.179719 56.900921 33.057663 12.600896 63.280125 17.109654 89.604184 17.109654 45.855448 0 79.818801-13.644408 96.101521-21.854679 5.119114-2.559557 10.02165-3.859024 14.884808-3.859024 5.119114 0 10.19885 1.43729 15.39672 4.311869 13.42783 7.422715 49.911361 21.559345 96.554366 21.559345 28.411083 0 60.582745-8.564671 93.620719-22.248457 25.812148-10.533561 43.276202-28.214194 49.202561-49.852295 4.489069-16.440231 1.909823-34.475264-7.363649-49.675095-9.430983-15.711742-25.339614-33.668019-25.339614-33.668019 12.679652 10.513873 28.982061 18.527255 46.54456 18.527255 6.930493 0 14.13663-1.240401 21.579034-4.075602 14.687919-5.926359 23.922013-24.237036 25.477437-39.239978 0.078756-0.866312 0.118133-1.732623 0.098444-2.598935-3.544002-127.367494-43.985003-181.767925-63.063547-200.196735 0.669423-63.595147-8.623738-171.450941-70.249995-246.229383-43.31558-52.785941-104.193659-79.543156-180.744102-79.543156-0.826934 0-1.653868 0-2.461112 0-0.413467 0-0.826934 0-1.220712 0-76.215732 0-136.759099 26.619393-179.976235 79.169067C270.988175 150.245996 259.391413 252.214809 260.572747 328.410852 240.056913 349.300775 186.089638 415.238901 198.828357 528.174431zM288.688496 355.995001c7.383337-7.52116 11.439251-17.680632 11.28174-28.214194-1.043512-67.493549 8.505605-161.114269 59.873945-223.724971 35.873176-43.610913 84.780403-64.79617 149.163106-64.79617l1.594801 0 1.319156 0 1.141956 0c65.15057 0 114.313753 21.30339 150.34444 65.189948 54.636697 66.292526 61.823146 166.784672 61.252168 220.771636-0.118133 10.828895 4.233113 21.224634 12.029918 28.745794 9.273472 8.958449 47.410871 51.388029 51.01394 171.372186-0.433156 2.32329-1.575112 4.863158-2.520179 6.300448-1.79169 0.492222-3.504624 0.728489-5.19787 0.728489-6.359515 0-14.156319-3.445557-21.401834-9.450672-7.324271-6.064181-16.243342-9.076583-25.123036-9.076583-10.316984 0-20.614278 4.036224-28.312638 11.99054-14.333519 14.766675-14.845431 38.078333-1.220712 53.494741 3.780269 4.272491 14.924186 17.601877 21.204945 28.09606 3.563691 5.827914 4.64658 12.679652 2.992713 18.743833-2.618624 9.529428-11.872407 17.975966-26.284681 23.843258-30.832817 12.778096-57.255321 19.255744-78.539022 19.255744-38.885577 0-69.108039-12.010229-77.475821-16.63712-11.084851-6.123248-22.681613-9.234094-34.475264-9.234094-10.966717 0-21.933435 2.717068-32.644196 8.072449-13.053741 6.595781-40.598512 17.641254-78.361822 17.641254-24.867081 0-50.305139-4.882847-75.70382-14.569786-17.089965-6.457959-26.343748-20.3977-29.021439-30.202773-1.929512-7.206137-0.728489-13.900363 3.878713-21.224634 2.933646-4.725336 5.020669-8.348094 6.851737-11.557384 3.189602-5.591648 4.64658-8.131516 10.19885-14.963564 12.404007-15.317964 11.557384-37.428599-1.949201-51.781807-7.69836-8.170893-18.153166-12.384318-28.706416-12.384318-7.993693 0-16.007076 2.421735-22.91788 7.34396-7.16676 5.119114-17.168721 10.868273-21.854679 12.600896-0.255956-0.098444-0.610356-0.315022-1.201023-0.807245-0.334711-0.945067-0.728489-2.894268-1.082889-4.666269-0.295333-1.496356-0.630045-3.012402-1.063201-4.626891C227.160684 422.897883 275.969467 368.969986 288.688496 355.995001zM355.985156 890.706147c0-66.194082-37.23171-108.663039-95.156454-108.663039s-95.432098 42.744602-95.432098 109.214328c0 66.194082 37.23171 108.663039 95.156454 108.663039 19.019477 0 33.097041-3.859024 48.533138-12.955296 15.987387 15.711742 19.019477 19.019477 24.000769 25.930281l14.884808-15.436098c-7.718049-6.064181-11.301429-9.371916-24.000769-21.795612 12.128362-12.955296 16.814321-19.590455 22.071257-31.994462C352.677421 928.213502 355.985156 910.572247 355.985156 890.706147zM324.541983 938.707685c-3.859024 8.820627-6.891115 13.506585-15.436098 22.622546-13.78223-13.78223-17.385299-17.916899-22.071257-23.44948l-15.160453 14.884808c8.269338 6.064181 13.230941 10.474495 22.622546 19.590455-10.19885 5.788537-20.141745 8.269338-32.545752 8.269338-45.225403 0-74.187775-35.026553-74.187775-89.623873 0-54.321675 28.962372-89.623873 73.360841-89.623873 44.122825 0 72.258263 34.750908 72.258263 89.072584C333.36261 908.642735 330.33052 924.354477 324.541983 938.707685zM575.122613 890.706147c0-66.194082-37.23171-108.663039-95.156454-108.663039-57.924744 0-95.432098 42.744602-95.432098 109.214328 0 66.194082 37.23171 108.663039 95.156454 108.663039 19.019477 0 33.097041-3.859024 48.533138-12.955296 15.987387 15.711742 19.019477 19.019477 24.000769 25.930281L567.12892 997.439674c-7.718049-6.064181-11.301429-9.371916-24.000769-21.795612 12.128362-12.955296 16.814321-19.590455 22.071257-31.994462C571.814878 928.213502 575.122613 910.572247 575.122613 890.706147zM543.67944 938.707685c-3.859024 8.820627-6.891115 13.506585-15.436098 22.622546-13.78223-13.78223-17.385299-17.916899-22.071257-23.44948l-15.160453 14.884808c8.269338 6.064181 13.230941 10.474495 22.622546 19.590455-10.19885 5.788537-20.122056 8.269338-32.545752 8.269338-45.225403 0-74.187775-35.026553-74.187775-89.623873 0-54.321675 28.962372-89.623873 73.360841-89.623873 44.122825 0 72.258263 34.750908 72.258263 89.072584C552.500067 908.642735 549.467977 924.354477 543.67944 938.707685zM806.8019 937.329462l0-43.295891 24.099214 0c10.395739 0 18.07441 0.570978 23.823569 1.397912l0-18.566633c-4.922225 1.122267-11.222673 1.397912-24.374858 1.397912l-23.547924 0 0-38.806822 30.675306 0c10.395739 0 17.523121 0.275645 23.823569 1.397912l0-18.842277c-6.300448 1.122267-11.773962 1.397912-24.374858 1.397912L821.312619 823.409487c9.31285-14.057875 16.420543-28.115749 25.457748-49.497895l-17.247476-6.182315c-5.749159 19.6889-13.408141 36.837932-24.926147 55.680209l-38.609933 0c-11.498318 0-16.164587-0.275645-22.720991-1.397912l0 18.842277c7.934627-1.122267 13.152185-1.397912 22.720991-1.397912l23.547924 0 0 38.806822-21.913746 0c-10.671384 0-15.337653-0.275645-21.638101-1.397912l0 18.566633c6.851737-1.122267 9.864139-1.397912 21.638101-1.397912l21.913746 0 0 43.295891-32.309485 0c-10.415428 0-16.420543-0.275645-22.720991-1.397912l0 19.117922c7.127382-1.122267 10.415428-1.397912 22.445346-1.397912l32.585129 0 0 40.500067c0 12.364629-0.551289 20.535523-1.634179 29.808995l20.535523 0c-1.378223-8.997827-1.634179-16.873387-1.634179-29.808995l0-40.500067 35.046242 0c9.037205 0 17.247476 0.570978 24.374858 1.693245l0-19.413255c-7.934627 1.122267-14.786364 1.397912-24.926147 1.397912L806.8019 937.329462zM750.668846 774.246304c10.671384 18.842277 13.95943 26.442193 19.984233 45.264781l15.613298-6.182315c-7.658982-20.811167-10.671384-27.56446-20.259878-44.989136L750.668846 774.246304zM725.742698 932.840393c0-10.966717 0-15.180142 0.826934-20.535523-4.390625 0.846623-9.31285 1.122267-17.523121 1.122267l-50.935184 0c4.370936-10.966717 6.300448-16.026765 9.037205-26.422504l38.334288 0c2.461112 0 12.876541 0.275645 14.235075 0.275645 3.839335 0.275645 3.839335 0.275645 5.473514 0.275645-0.826934-5.060047-0.826934-8.722183-0.826934-16.597743l0-29.53335c6.851737 0 8.485916 0.275645 13.42783 1.122267l0-17.424676c-2.736757 0.570978-6.300448 1.122267-8.76156 1.122267-3.839335 0-3.839335 0-4.666269 0l0-28.411083c0-7.304582 0-11.242362 0.826934-16.302409-6.300448 0.570978-9.037205 0.570978-20.259878 0.570978l-60.248034 0c-10.395739 0-15.337653-0.275645-20.811167-1.397912l0 17.72001c6.300448-0.846623 11.773962-1.122267 19.708589-1.122267l16.420543 0c-0.275645 12.659963-0.551289 22.209079-0.551289 28.962372l-23.547924 0c-11.498318 0-16.420543-0.275645-22.996635-1.397912l0 17.995655c7.403026-1.122267 10.139783-1.397912 22.996635-1.397912l22.445346 0c-0.826934 9.273472-1.909823 19.6889-3.839335 30.360284l-12.600896 0c-9.588494 0-13.683785-0.275645-18.350055-1.122267l0 17.149032c7.658982-0.846623 8.210271-0.846623 18.901344-0.846623l8.76156 0c-8.210271 30.360284-19.708589 52.293718-40.795401 77.613644 5.749159 5.631025 6.300448 6.457959 10.947028 14.333519 14.786364-20.535523 19.708589-28.115749 25.733392-41.051356-0.826934 11.81334-1.102578 20.535523-1.102578 27.269126l0 32.900152c0 6.457959-0.826934 15.475475-1.634179 23.055702l18.07441 0 0-19.393566 47.095849 0 0 11.537695 17.523121 0c-1.102578-7.028937-1.378223-14.628853-1.378223-23.902325L725.683632 932.840393zM676.461382 797.302005l32.309485 0 0 28.962372-33.412063 0C675.910092 817.26655 675.910092 817.26655 676.461382 797.302005zM674.275914 841.444519l34.494953 0 0 30.360284-38.334288 0C672.36609 860.011152 672.36609 860.011152 674.275914 841.444519zM709.5978 986.551712l-47.095849 0 0-57.924744 47.095849 0L709.5978 986.551712z" fill="#1296db" p-id="60367"></path></svg>
